# xmcd
#
# Track frame offsets:
# 150
# 20702
# 38270
# 55870
# 74590
# 95137
# 112830
# 127252
# 145885
# 167335
# 186792
# 210625
# 227410
# 248205
# 265375
#
# Disc length: 3787 seconds
#
# Revision: 0
# Processed by: cddbd v1.5.1PL0 Copyright (c) Steve Scherf et al.
# Submitted via: MacMP3 Pro 5.0 (http://mp3.act2.co.jp/)
#
DISCID=d30ec90f
DTITLE=Yoo Yeol - Best Selection
DYEAR=1900
DGENRE=
TTITLE0=«<sum>«>«Õ
TTITLE1=Ô†«Õ
TTITLE2=ËH‚J
TTITLE3=ÒY«Õ«»« 
TTITLE4=«?«Ê‡ÕÏx«Ê«ÿ«?«?
TTITLE5=„€«√« «ß«ªÂN«...
TTITLE6=„P«©«µ«¥Ï?≈X«’‚fl«®
TTITLE7=ÂN«˜«√Îz«¢
TTITLE8=«?«»Ï?≈A«"«?
TTITLE9=Ë‚«fl«?«√‡ß
TTITLE10=Òl«Ê«ÿ«√ÂN≈@ÂN«Ê«ÿ«√Òl
TTITLE11=ÏVÈg«√Ì©
TTITLE12=Ë!=«µ«?«¨Î¬Íl«...«ª«°«?«¥«?ÂN«...
TTITLE13=Ï~ÈxÏx
TTITLE14=‡ß«√È]‚√
EXTD=
EXTT0=
EXTT1=
EXTT2=
EXTT3=
EXTT4=
EXTT5=
EXTT6=
EXTT7=
EXTT8=
EXTT9=
EXTT10=
EXTT11=
EXTT12=
EXTT13=
EXTT14=
PLAYORDER=
